HIERARCHY
ROOT Hips
{
  OFFSET -331.093 83.8371 -317.828
  CHANNELS 6 Xposition Yposition Zposition Zrotation Xrotation Yrotation
  JOINT LeftUpLeg
  {
    OFFSET 8.64259 1.95398 -2.38835
    CHANNELS 3 Zrotation Xrotation Yrotation
    JOINT LeftLeg
    {
      OFFSET 43.7702 0 0
      CHANNELS 3 Zrotation Xrotation Yrotation
      JOINT LeftFoot
      {
        OFFSET 40.6238 0 0
        CHANNELS 3 Zrotation Xrotation Yrotation
        JOINT LeftToeBase
        {
          OFFSET 12.7242 0 0
          CHANNELS 3 Zrotation Xrotation Yrotation
          End Site
          {
            OFFSET 0 0 0
          }
        }
      }
    }
  }
  JOINT RightUpLeg
  {
    OFFSET -8.2249 1.95398 -2.59336
    CHANNELS 3 Zrotation Xrotation Yrotation
    JOINT RightLeg
    {
      OFFSET 43.5653 0 0
      CHANNELS 3 Zrotation Xrotation Yrotation
      JOINT RightFoot
      {
        OFFSET 40.6238 0 0
        CHANNELS 3 Zrotation Xrotation Yrotation
        JOINT RightToeBase
        {
          OFFSET 12.7242 0 0
          CHANNELS 3 Zrotation Xrotation Yrotation
          End Site
          {
            OFFSET 0 0 0
          }
        }
      }
    }
  }
  JOINT Spine
  {
    OFFSET 0.165834 0.87714 6.61349
    CHANNELS 3 Zrotation Xrotation Yrotation
    JOINT Spine1
    {
      OFFSET 7.38963 1.71661e-005 0
      CHANNELS 3 Zrotation Xrotation Yrotation
      JOINT Spine2
      {
        OFFSET 11.9445 1.14441e-005 0
        CHANNELS 3 Zrotation Xrotation Yrotation
        JOINT Spine3
        {
          OFFSET 14.7254 4.19617e-005 0
          CHANNELS 3 Zrotation Xrotation Yrotation
          JOINT Spine4
          {
            OFFSET 10.9679 0 0
            CHANNELS 3 Zrotation Xrotation Yrotation
            JOINT RightShoulder
            {
              OFFSET 2.46616 -1.6653 3.69651
              CHANNELS 3 Zrotation Xrotation Yrotation
              JOINT RightArm
              {
                OFFSET 13.0012 0 0
                CHANNELS 3 Zrotation Xrotation Yrotation
                JOINT RightForeArm
                {
                  OFFSET 28.7848 1.62311e-005 0
                  CHANNELS 3 Zrotation Xrotation Yrotation
                  JOINT RightHand
                  {
                    OFFSET 26.5688 1.62095e-005 0
                    CHANNELS 3 Zrotation Xrotation Yrotation
                    End Site
                    {
                      OFFSET 0 0 0
                    }
                  }
                }
              }
            }
            JOINT LeftShoulder
            {
              OFFSET 2.38034 -1.29275 -3.7523
              CHANNELS 3 Zrotation Xrotation Yrotation
              JOINT LeftArm
              {
                OFFSET 16.3182 6.07031e-005 0
                CHANNELS 3 Zrotation Xrotation Yrotation
                JOINT LeftForeArm
                {
                  OFFSET 27.0901 0 0
                  CHANNELS 3 Zrotation Xrotation Yrotation
                  JOINT LeftHand
                  {
                    OFFSET 24.5451 1.51738e-005 0
                    CHANNELS 3 Zrotation Xrotation Yrotation
                    End Site
                    {
                      OFFSET 0 0 0
                    }
                  }
                }
              }
            }
            JOINT Neck
            {
              OFFSET 5.0226 -0.0266342 0
              CHANNELS 3 Zrotation Xrotation Yrotation
              JOINT Head
              {
                OFFSET 6.69364 2.86102e-005 0
                CHANNELS 3 Zrotation Xrotation Yrotation
                End Site
                {
                  OFFSET 0 0 0
                }
              }
            }
          }
        }
      }
    }
  }
}
MOTION
Frames:	7
Frame Time:	0.0416667
78.7501 81.3093 27.6237 -89.5311 -68.6793 -95.9781 179.642 38.6927 104.849 -58.2124 33.5127 3.15063 65.4972 7.0027 7.9428 55.2192 24.0317 5.32984 -174.448 44.3632 91.2255 -85.5309 4.25083 -4.97533 80.5227 -10.7097 -5.46576 46.0394 -4.05236 -13.5492 -0.0879954 8.98082 -89.0039 8.90577 0.268143 1.95358 -2.76661 0.353853 1.9399 -25.2902 -0.331259 1.94388 -5.2775 -0.331271 1.94387 90.5849 -42.0917 -101.445 24.94 -19.8413 -7.19333 -28.509 -10.8443 -69.2928 -44.3466 -2.7506 2.07615 -87.3568 -37.2908 80.6058 -8.59265 -24.1639 17.995 10.257 5.88691 -71.3713 13.6285 1.30953 5.59038 -16.8764 -37.0128 -16.4789 -5.34901 -36.4203 -28.2058 
79.0592 80.4939 26.8929 -87.2094 -68.0327 -93.2615 -179.737 41.2719 106.176 -59.5137 35.3618 2.41953 63.4999 6.77103 10.5797 58.6763 25.4273 2.67839 -176.409 46.2483 93.0642 -89.6448 5.48369 -4.17457 79.2657 -10.2261 -5.43619 46.6691 -4.36643 -14.3167 -0.222279 9.02192 -88.9209 8.82472 0.0364361 2.13329 -2.84796 0.130273 2.12962 -25.3699 -0.606255 2.04571 -5.35722 -0.606254 2.0457 90.3099 -43.184 -101.611 30.5684 -14.5872 -0.607043 -24.0385 -14.3132 -59.4247 -45.1148 -3.29482 3.34158 -87.5423 -37.744 80.3893 -10.3816 -22.1844 11.3052 14.1037 1.4625 -90.7998 11.2881 1.09467 5.50069 -17.2831 -35.6395 -15.5391 -5.78726 -34.9933 -29.4701 
78.9677 79.9158 26.0728 -85.7393 -66.2338 -91.7703 -179.626 42.2047 107.385 -60.0136 34.4912 2.32892 63.7262 6.48783 9.61114 58.1108 25.7492 3.92691 -177.523 47.2344 93.5821 -92.8063 7.02623 -3.84729 78.6074 -10.0829 -5.48856 46.4011 -3.96911 -13.0621 -0.329395 9.06977 -88.8806 8.73054 -0.160332 2.22544 -2.9423 -0.0622489 2.23033 -25.4638 -0.821618 2.0745 -5.45116 -0.821608 2.0745 90.418 -43.4432 -101.365 31.4049 -12.0857 2.78191 -13.0711 -12.6792 -47.2651 -43.4402 -3.13196 3.19269 -87.8873 -38.0992 79.8791 -16.9489 -14.1091 2.3074 16.6058 -5.09212 -104.103 6.18177 0.537969 4.10204 -18.2274 -34.6339 -14.901 -5.45298 -34.1615 -30.3911 
78.4638 79.7154 25.3178 -84.8314 -62.8161 -91.3869 -178.982 41.3444 108.057 -59.3181 33.3146 2.25936 63.7566 6.50246 9.5779 57.4797 26.5867 6.0253 -177.226 47.9758 91.8392 -95.1102 8.11749 -3.85202 77.2344 -9.66941 -5.47614 46.1522 -3.38369 -11.0849 -0.386999 9.00787 -88.9293 8.85615 -0.295661 2.1394 -2.81655 -0.201228 2.15033 -25.3397 -0.924839 1.95178 -5.32703 -0.924852 1.95177 90.4995 -43.0135 -101.343 30.797 -10.8821 6.48017 -7.75189 -10.3066 -38.402 -42.3671 -2.8813 2.68063 -88.9359 -40.0227 78.5673 -20.8873 2.07679 -5.48235 20.9174 -11.6221 -109.208 3.38036 0.331865 3.97643 -17.0911 -34.3916 -13.2031 -5.28505 -33.7924 -30.3683 
77.2983 80.2348 24.6926 -85.1402 -57.4236 -93.3761 -176.913 37.1754 107.326 -55.5984 31.6605 1.82948 62.241 6.33301 11.6282 58.7786 27.8738 6.11224 -176.471 48.3601 87.9334 -96.1728 8.81642 -4.01537 75.7946 -9.06568 -5.37495 45.0664 -3.22459 -11.0143 -0.457399 8.86947 -88.9281 9.13419 -0.432697 2.15347 -2.5385 -0.337533 2.17043 -25.0622 -1.05979 1.92403 -5.04961 -1.05979 1.92402 90.8968 -42.356 -100.852 29.8113 -9.56504 10.4125 -7.28099 -10.6968 -36.0959 -42.4497 -2.82948 2.52568 -90.3029 -41.4631 76.6778 -22.4968 16.6956 -8.96835 26.8488 -17.6919 -107.913 -0.227563 0.0473319 2.87147 -15.3246 -34.0589 -11.9725 -3.48498 -33.6549 -28.0205 
74.6979 81.7408 24.168 -84.2155 -49.4022 -95.574 -173.481 29.1318 106.4 -46.6762 27.1577 0.733736 62.4072 4.77672 7.97144 55.4322 27.381 10.0984 -177.685 48.8945 84.4911 -94.8503 8.81969 -3.89611 75.3048 -8.58168 -5.17588 44.2967 -4.27504 -15.3489 -0.488078 8.5589 -88.938 9.75595 -0.492151 2.14542 -1.91671 -0.397298 2.16497 -24.4409 -1.11408 1.89848 -4.42827 -1.11412 1.89845 91.3691 -41.3014 -100.327 28.4547 -9.58644 14.408 -7.05132 -8.18041 -40.4657 -42.1164 -2.71019 2.22514 -91.4834 -43.233 75.2496 -24.1621 23.6796 -4.67305 33.1389 -20.867 -105.169 -3.11918 -0.139579 3.15198 -13.6681 -33.5013 -9.40531 -1.55134 -33.3367 -26.0051 
70.3632 83.9332 23.2596 -82.7657 -38.9189 -97.5434 -168.998 18.6491 106.544 -33.9582 20.0424 -1.17732 58.7989 -0.768397 1.2177 51.1916 25.6688 14.016 177.505 48.4898 84.8438 -89.9146 8.13782 -3.0279 75.4016 -8.13959 -4.83454 45.4943 -4.02176 -13.7981 -0.30286 8.13695 -89.0207 10.5973 -0.152832 1.96092 -1.07514 -0.0663904 1.96574 -23.5997 -0.735012 1.82441 -3.5871 -0.735009 1.82442 91.9319 -40.565 -99.5515 27.637 -9.86549 16.6467 -7.92085 -7.24746 -45.9454 -42.487 -2.50931 1.61241 -91.1292 -44.2321 76.0834 -28.3825 24.8264 3.60797 35.5488 -17.6539 -99.1641 1.34613 0.174578 3.67148 -12.9956 -32.0611 -6.83453 1.39861 -32.3649 -22.0202 
